<?xml version="1.0" encoding="UTF-8" standalone="no"?>
<!-- Created with Inkscape (http://www.inkscape.org/) -->

<svg
   xmlns:dc="http://purl.org/dc/elements/1.1/"
   xmlns:cc="http://creativecommons.org/ns#"
   xmlns:rdf="http://www.w3.org/1999/02/22-rdf-syntax-ns#"
   xmlns:svg="http://www.w3.org/2000/svg"
   xmlns="http://www.w3.org/2000/svg"
   xmlns:sodipodi="http://sodipodi.sourceforge.net/DTD/sodipodi-0.dtd"
   xmlns:inkscape="http://www.inkscape.org/namespaces/inkscape"
   width="210mm"
   height="297mm"
   viewBox="0 0 744.09448819 1052.3622047"
   id="svg2"
   version="1.1"
   inkscape:version="0.91 r13725"
   sodipodi:docname="Zeichnung.svg">
  <defs
     id="defs4" />
  <sodipodi:namedview
     id="base"
     pagecolor="#ffffff"
     bordercolor="#666666"
     borderopacity="1.0"
     inkscape:pageopacity="0.0"
     inkscape:pageshadow="2"
     inkscape:zoom="3.959798"
     inkscape:cx="326.73391"
     inkscape:cy="786.13061"
     inkscape:document-units="px"
     inkscape:current-layer="layer1"
     showgrid="false"
     inkscape:window-width="1156"
     inkscape:window-height="772"
     inkscape:window-x="51"
     inkscape:window-y="0"
     inkscape:window-maximized="0" />
  <metadata
     id="metadata7">
    <rdf:RDF>
      <cc:Work
         rdf:about="">
        <dc:format>image/svg+xml</dc:format>
        <dc:type
           rdf:resource="http://purl.org/dc/dcmitype/StillImage" />
        <dc:title></dc:title>
      </cc:Work>
    </rdf:RDF>
  </metadata>
  <g
     inkscape:label="Ebene 1"
     inkscape:groupmode="layer"
     id="layer1">
    <rect
       style="color:#000000;clip-rule:nonzero;display:inline;overflow:visible;visibility:visible;opacity:0.7;isolation:auto;mix-blend-mode:normal;color-interpolation:sRGB;color-interpolation-filters:linearRGB;solid-color:#000000;solid-opacity:1;fill:#000080;fill-opacity:1;fill-rule:nonzero;stroke:none;stroke-width:1.98099995;stroke-linecap:butt;stroke-linejoin:miter;stroke-miterlimit:4;stroke-dasharray:none;stroke-dashoffset:0;stroke-opacity:1;color-rendering:auto;image-rendering:auto;shape-rendering:auto;text-rendering:auto;enable-background:accumulate"
       id="rect3428-4"
       width="54.798225"
       height="54.798225"
       x="277.16061"
       y="268.08728"
       inkscape:export-filename="/home/unknwon/AndroidStudioProjects/Vibora-dieApp/app/src/main/res/mipmap-hdpi/ic_launcher.png"
       inkscape:export-xdpi="118.25202"
       inkscape:export-ydpi="118.25202" />
    <rect
       style="color:#000000;clip-rule:nonzero;display:inline;overflow:visible;visibility:visible;opacity:1;isolation:auto;mix-blend-mode:normal;color-interpolation:sRGB;color-interpolation-filters:linearRGB;solid-color:#000000;solid-opacity:1;fill:#000080;fill-opacity:1;fill-rule:nonzero;stroke:none;stroke-width:1.98099995;stroke-linecap:butt;stroke-linejoin:miter;stroke-miterlimit:4;stroke-dasharray:none;stroke-dashoffset:0;stroke-opacity:1;color-rendering:auto;image-rendering:auto;shape-rendering:auto;text-rendering:auto;enable-background:accumulate"
       id="rect3428"
       width="246.72975"
       height="76.519058"
       x="205.81859"
       y="186.66147" />
    <ellipse
       style="color:#000000;clip-rule:nonzero;display:inline;overflow:visible;visibility:visible;opacity:1;isolation:auto;mix-blend-mode:normal;color-interpolation:sRGB;color-interpolation-filters:linearRGB;solid-color:#000000;solid-opacity:1;fill:#999999;fill-opacity:1;fill-rule:nonzero;stroke:none;stroke-width:1.98099995;stroke-linecap:butt;stroke-linejoin:miter;stroke-miterlimit:4;stroke-dasharray:none;stroke-dashoffset:0;stroke-opacity:1;color-rendering:auto;image-rendering:auto;shape-rendering:auto;text-rendering:auto;enable-background:accumulate"
       id="path3426-7"
       cx="211.84866"
       cy="268.32227"
       rx="21.844549"
       ry="21.844547"
       transform="matrix(0.98776168,-0.15597074,0.15597074,0.98776168,0,0)" />
    <ellipse
       style="color:#000000;clip-rule:nonzero;display:inline;overflow:visible;visibility:visible;opacity:1;isolation:auto;mix-blend-mode:normal;color-interpolation:sRGB;color-interpolation-filters:linearRGB;solid-color:#000000;solid-opacity:1;fill:#ffffff;fill-opacity:1;fill-rule:nonzero;stroke:none;stroke-width:1.98099995;stroke-linecap:butt;stroke-linejoin:miter;stroke-miterlimit:4;stroke-dasharray:none;stroke-dashoffset:0;stroke-opacity:1;color-rendering:auto;image-rendering:auto;shape-rendering:auto;text-rendering:auto;enable-background:accumulate"
       id="path3426"
       cx="212.22746"
       cy="268.19601"
       rx="18.814091"
       ry="19.192898"
       transform="matrix(0.98776168,-0.15597074,0.15597074,0.98776168,0,0)" />
    <path
       style="color:#000000;clip-rule:nonzero;display:inline;overflow:visible;visibility:visible;opacity:1;isolation:auto;mix-blend-mode:normal;color-interpolation:sRGB;color-interpolation-filters:linearRGB;solid-color:#000000;solid-opacity:1;fill:#000000;fill-opacity:1;fill-rule:nonzero;stroke:none;stroke-width:1.98099995;stroke-linecap:butt;stroke-linejoin:miter;stroke-miterlimit:4;stroke-dasharray:none;stroke-dashoffset:0;stroke-opacity:1;color-rendering:auto;image-rendering:auto;shape-rendering:auto;text-rendering:auto;enable-background:accumulate"
       d="m 247.49832,208.82994 c -4.33611,0.69177 -8.40087,2.54612 -11.74934,5.35908 l 9.25871,19.66572 3.43361,-25.12625 c -0.31495,0.0277 -0.62933,0.0615 -0.94298,0.10142 z m 7.56378,0.0158 -5.32715,30.6533 -7.73425,1.22126 -10.90822,-21.28373 c -3.18135,4.86475 -4.44624,10.70311 -3.55471,16.40758 1.80034,11.38228 11.96699,21.52065 25.66921,19.73653 -1.04753,-22.31657 11.02185,-20.14355 7.67304,-42.64109 l 3.00749,-0.80905 c -2.68828,-1.66349 -5.68861,-2.7802 -8.82541,-3.2848 z m 11.77603,5.39138 c 1.98157,16.92229 -9.4176,24.87851 -7.74328,40.07117 10.87209,-3.81234 17.47779,-14.71146 15.71465,-25.9285 -0.87393,-5.5025 -3.69787,-10.51304 -7.97137,-14.14267 z"
       id="path3401"
       inkscape:connector-curvature="0"
       sodipodi:nodetypes="cccccccccccccccccc" />
    <ellipse
       style="color:#000000;clip-rule:nonzero;display:inline;overflow:visible;visibility:visible;opacity:1;isolation:auto;mix-blend-mode:normal;color-interpolation:sRGB;color-interpolation-filters:linearRGB;solid-color:#000000;solid-opacity:1;fill:#000000;fill-opacity:1;fill-rule:nonzero;stroke:none;stroke-width:1.98099995;stroke-linecap:butt;stroke-linejoin:miter;stroke-miterlimit:4;stroke-dasharray:none;stroke-dashoffset:0;stroke-opacity:1;color-rendering:auto;image-rendering:auto;shape-rendering:auto;text-rendering:auto;enable-background:accumulate"
       id="path3407-0"
       cx="230.44928"
       cy="249.23569"
       rx="5.9346461"
       ry="5.5558386"
       transform="matrix(0.98776168,-0.15597074,0.15597074,0.98776168,0,0)" />
    <ellipse
       style="color:#000000;clip-rule:nonzero;display:inline;overflow:visible;visibility:visible;opacity:1;isolation:auto;mix-blend-mode:normal;color-interpolation:sRGB;color-interpolation-filters:linearRGB;solid-color:#000000;solid-opacity:1;fill:#ffffff;fill-opacity:1;fill-rule:nonzero;stroke:none;stroke-width:1.98099995;stroke-linecap:butt;stroke-linejoin:miter;stroke-miterlimit:4;stroke-dasharray:none;stroke-dashoffset:0;stroke-opacity:1;color-rendering:auto;image-rendering:auto;shape-rendering:auto;text-rendering:auto;enable-background:accumulate"
       id="path3407"
       cx="230.38989"
       cy="249.21509"
       rx="4.1668792"
       ry="4.0406098"
       transform="matrix(0.98776168,-0.15597074,0.15597074,0.98776168,0,0)" />
    <path
       style="font-style:normal;font-weight:normal;font-size:31.41514778px;line-height:125%;font-family:sans-serif;letter-spacing:0px;word-spacing:0px;fill:#999999;fill-opacity:1;stroke:none;stroke-width:1px;stroke-linecap:butt;stroke-linejoin:miter;stroke-opacity:1"
       d="M 275.76367 218.66016 L 275.76367 242.10938 L 281.35352 242.10938 L 281.35352 239.66797 C 282.12379 240.65254 282.97724 241.38132 283.91406 241.85352 C 284.85088 242.31566 285.92862 242.54688 287.14648 242.54688 C 289.30117 242.54688 291.07067 241.72187 292.45508 240.07422 C 293.83949 238.41652 294.53125 236.28763 294.53125 233.68555 C 294.53125 231.08346 293.83949 228.9582 292.45508 227.31055 C 291.07067 225.65285 289.30117 224.82422 287.14648 224.82422 C 285.92862 224.82422 284.85088 225.05906 283.91406 225.53125 C 282.97724 225.9934 282.12379 226.7166 281.35352 227.70117 L 281.35352 218.66016 L 275.76367 218.66016 z M 382.15625 218.66016 L 382.15625 227.70117 C 381.38598 226.7166 380.53252 225.9934 379.5957 225.53125 C 378.66929 225.05906 377.60199 224.82422 376.39453 224.82422 C 374.23985 224.82422 372.47035 225.65285 371.08594 227.31055 C 369.70153 228.9582 369.00781 231.08346 369.00781 233.68555 C 369.00781 236.28763 369.70153 238.41652 371.08594 240.07422 C 372.47035 241.72187 374.23985 242.54688 376.39453 242.54688 C 377.6124 242.54687 378.68492 242.31566 379.61133 241.85352 C 380.53774 241.39137 381.38598 240.66259 382.15625 239.66797 L 382.15625 242.10938 L 387.77539 242.10938 L 387.77539 218.66016 L 382.15625 218.66016 z M 307.00781 224.82422 C 303.98917 224.82422 301.62506 225.60655 299.91797 227.17383 C 298.22128 228.74111 297.37305 230.91267 297.37305 233.68555 C 297.37305 236.45843 298.22128 238.62803 299.91797 240.19531 C 301.62506 241.76259 303.98917 242.54688 307.00781 242.54688 C 310.01605 242.54688 312.36255 241.76259 314.04883 240.19531 C 315.74551 238.62803 316.59375 236.45843 316.59375 233.68555 C 316.59375 230.91267 315.74551 228.74111 314.04883 227.17383 C 312.36255 225.60655 310.01605 224.82422 307.00781 224.82422 z M 332.08203 224.82422 C 330.78089 224.82422 329.66143 225.07942 328.72461 225.5918 C 327.7982 226.09413 326.97604 226.89877 326.25781 228.00391 L 326.25781 225.23047 L 320.66797 225.23047 L 320.66797 242.10938 L 326.25781 242.10938 L 326.25781 234.33203 C 326.25781 232.67433 326.64379 231.40364 327.41406 230.51953 C 328.19475 229.62538 329.30378 229.17969 330.74023 229.17969 C 331.22946 229.17969 331.71259 229.23519 332.19141 229.3457 C 332.68063 229.44617 333.17093 229.60515 333.66016 229.82617 L 333.64453 224.94336 C 333.22817 224.89313 332.91 224.86356 332.69141 224.85352 C 332.47281 224.83342 332.2694 224.82422 332.08203 224.82422 z M 343.91797 224.82422 C 342.71051 224.82422 341.50238 224.90008 340.29492 225.05078 C 339.08747 225.19143 337.88455 225.40229 336.6875 225.68359 L 336.6875 229.79688 C 337.57227 229.33473 338.53005 228.98889 339.56055 228.75781 C 340.59105 228.52674 341.7053 228.41016 342.90234 228.41016 C 344.38044 228.41016 345.46861 228.61181 346.16602 229.01367 C 346.86343 229.40549 347.21289 230.02885 347.21289 230.88281 L 347.21289 231.30469 L 343.91797 231.30469 C 340.89933 231.30469 338.68126 231.76516 337.26562 232.68945 C 335.8604 233.61375 335.1582 235.06573 335.1582 237.04492 C 335.1582 238.67248 335.71957 239.99868 336.84375 241.02344 C 337.97834 242.03815 339.45249 242.54688 341.26367 242.54688 C 342.60645 242.54687 343.74677 242.31566 344.68359 241.85352 C 345.62041 241.38132 346.46343 240.63218 347.21289 239.60742 L 347.21289 242.10938 L 352.84766 242.10938 L 352.84766 232.47852 C 352.84766 229.77596 352.14546 227.82837 350.74023 226.63281 C 349.34541 225.42721 347.07193 224.82422 343.91797 224.82422 z M 401.5625 224.82422 C 398.54386 224.82422 396.17127 225.61213 394.44336 227.18945 C 392.72586 228.76678 391.86719 230.93276 391.86719 233.68555 C 391.86719 236.48857 392.7415 238.66738 394.49023 240.22461 C 396.24937 241.7718 398.71063 242.54688 401.875 242.54688 C 403.19696 242.54687 404.51984 242.42109 405.8418 242.16992 C 407.16375 241.9288 408.48468 241.56622 409.80664 241.08398 L 409.80664 236.92578 C 408.5055 237.60895 407.23673 238.1213 405.99805 238.46289 C 404.76977 238.79443 403.56685 238.95898 402.39062 238.95898 C 400.93335 238.95898 399.79824 238.64271 398.98633 238.00977 C 398.17442 237.37683 397.70172 236.42799 397.56641 235.16211 L 410.63477 235.16211 L 410.63477 233.625 C 410.63477 230.95259 409.80739 228.81812 408.15234 227.2207 C 406.5077 225.62328 404.3105 224.82422 401.5625 224.82422 z M 401.53125 228.41016 C 402.53052 228.41016 403.33703 228.72643 403.95117 229.35938 C 404.57572 229.98227 404.88867 230.80727 404.88867 231.83203 L 397.62891 231.83203 C 397.79545 230.7269 398.21599 229.88154 398.89258 229.29883 C 399.56917 228.70607 400.4487 228.41016 401.53125 228.41016 z M 307.00781 228.68164 C 308.22568 228.68164 309.15542 229.1145 309.80078 229.97852 C 310.44615 230.83248 310.76953 232.06803 310.76953 233.68555 C 310.76953 235.30306 310.44615 236.54224 309.80078 237.40625 C 309.15542 238.26022 308.22568 238.6875 307.00781 238.6875 C 305.76913 238.6875 304.82179 238.26022 304.16602 237.40625 C 303.52065 236.54224 303.19727 235.30306 303.19727 233.68555 C 303.19727 232.06803 303.52065 230.83248 304.16602 229.97852 C 304.82179 229.1145 305.76913 228.68164 307.00781 228.68164 z M 285.07031 228.74219 C 286.26736 228.74219 287.17819 229.16389 287.80273 230.00781 C 288.43769 230.85173 288.75391 232.07808 288.75391 233.68555 C 288.75391 235.29301 288.43769 236.51741 287.80273 237.36133 C 287.17819 238.20525 286.26736 238.62695 285.07031 238.62695 C 283.87326 238.62695 282.95201 238.20525 282.30664 237.36133 C 281.67168 236.50736 281.35352 235.28297 281.35352 233.68555 C 281.35352 232.08813 281.67168 230.86736 282.30664 230.02344 C 282.95201 229.16947 283.87326 228.74219 285.07031 228.74219 z M 378.4707 228.74219 C 379.66775 228.74219 380.57858 229.16389 381.20312 230.00781 C 381.83808 230.85173 382.15625 232.07808 382.15625 233.68555 C 382.15625 235.29301 381.83808 236.51741 381.20312 237.36133 C 380.57858 238.20525 379.66775 238.62695 378.4707 238.62695 C 377.28406 238.62695 376.37324 238.20525 375.73828 237.36133 C 375.11373 236.51741 374.80078 235.29301 374.80078 233.68555 C 374.80078 232.07808 375.11373 230.85173 375.73828 230.00781 C 376.37324 229.16389 377.28406 228.74219 378.4707 228.74219 z M 344.30859 234.51367 L 347.21289 234.51367 L 347.21289 235.13086 C 347.21289 236.22595 346.85299 237.14159 346.13477 237.875 C 345.41654 238.59836 344.53179 238.95898 343.48047 238.95898 C 342.63733 238.95898 341.97687 238.76849 341.49805 238.38672 C 341.02964 237.9949 340.79492 237.45661 340.79492 236.77344 C 340.79492 236.02998 341.08701 235.46771 341.66992 235.08594 C 342.26324 234.70416 343.14277 234.51367 344.30859 234.51367 z M 358.65625 236.27734 L 358.65625 242.10938 L 364.27734 242.10938 L 364.27734 236.27734 L 358.65625 236.27734 z "
       id="text3445-4" />
    <path
       style="fill:#000000;fill-rule:evenodd;stroke:none;stroke-width:1px;stroke-linecap:butt;stroke-linejoin:miter;stroke-opacity:1"
       d="m 270.97342,237.1691 c 7.08945,3.84474 34.52979,-2.97331 55.55839,1.76776 7.90023,3.11464 29.2036,-1.09433 49.75002,-0.25253 7.27873,1.21293 14.51369,3.53186 35.86041,0.75762 l 3.28299,8.08121 c -13.97292,0.75775 -6.05057,5.047 -41.92132,2.27285 -20.08651,2.93004 -64.90012,-1.90908 -84.60028,-1.26269 -15.31312,2.75499 -23.60146,0.47079 -26.51651,-1.51523 z"
       id="path3516"
       inkscape:connector-curvature="0"
       sodipodi:nodetypes="ccccccccc" />
    <path
       style="font-style:normal;font-weight:normal;font-size:31.41514778px;line-height:125%;font-family:sans-serif;letter-spacing:0px;word-spacing:0px;fill:#ffffff;fill-opacity:1;stroke:none;stroke-width:1px;stroke-linecap:butt;stroke-linejoin:miter;stroke-opacity:1"
       d="M 276.85742 216.62695 L 276.85742 240.07617 L 282.44727 240.07617 L 282.44727 237.63477 C 283.21754 238.61934 284.07099 239.34812 285.00781 239.82031 C 285.94463 240.28246 287.02237 240.51367 288.24023 240.51367 C 290.39492 240.51367 292.16442 239.68867 293.54883 238.04102 C 294.93324 236.38331 295.625 234.25443 295.625 231.65234 C 295.625 229.05026 294.93324 226.925 293.54883 225.27734 C 292.16442 223.61964 290.39492 222.79102 288.24023 222.79102 C 287.02237 222.79102 285.94463 223.02781 285.00781 223.5 C 284.07099 223.96215 283.21754 224.68535 282.44727 225.66992 L 282.44727 216.62695 L 276.85742 216.62695 z M 383.25 216.62695 L 383.25 225.66992 C 382.47973 224.68535 381.62627 223.96215 380.68945 223.5 C 379.76304 223.02781 378.69574 222.79102 377.48828 222.79102 C 375.3336 222.79102 373.5641 223.61964 372.17969 225.27734 C 370.79528 226.925 370.10352 229.05026 370.10352 231.65234 C 370.10352 234.25443 370.79528 236.38331 372.17969 238.04102 C 373.5641 239.68867 375.3336 240.51367 377.48828 240.51367 C 378.70615 240.51367 379.77867 240.28246 380.70508 239.82031 C 381.63149 239.35817 382.47973 238.62939 383.25 237.63477 L 383.25 240.07617 L 388.87109 240.07617 L 388.87109 216.62695 L 383.25 216.62695 z M 308.10156 222.79102 C 305.08292 222.79102 302.71881 223.5753 301.01172 225.14258 C 299.31503 226.70986 298.4668 228.87946 298.4668 231.65234 C 298.4668 234.42523 299.31503 236.59483 301.01172 238.16211 C 302.71881 239.72939 305.08292 240.51367 308.10156 240.51367 C 311.1098 240.51367 313.4563 239.72939 315.14258 238.16211 C 316.83926 236.59483 317.6875 234.42523 317.6875 231.65234 C 317.6875 228.87946 316.83926 226.70986 315.14258 225.14258 C 313.4563 223.5753 311.1098 222.79102 308.10156 222.79102 z M 333.17578 222.79102 C 331.87464 222.79102 330.75713 223.04817 329.82031 223.56055 C 328.8939 224.06288 328.07174 224.86557 327.35352 225.9707 L 327.35352 223.19727 L 321.76367 223.19727 L 321.76367 240.07617 L 327.35352 240.07617 L 327.35352 232.30078 C 327.35352 230.64308 327.73754 229.37239 328.50781 228.48828 C 329.2885 227.59413 330.39753 227.14648 331.83398 227.14648 C 332.32321 227.14648 332.80634 227.20199 333.28516 227.3125 C 333.77438 227.41297 334.26468 227.5739 334.75391 227.79492 L 334.73828 222.91211 C 334.32192 222.86188 334.00375 222.83036 333.78516 222.82031 C 333.56656 222.80022 333.36315 222.79102 333.17578 222.79102 z M 345.01172 222.79102 C 343.80426 222.79102 342.59613 222.86688 341.38867 223.01758 C 340.18122 223.15823 338.98025 223.36908 337.7832 223.65039 L 337.7832 227.76367 C 338.66798 227.30152 339.62575 226.95568 340.65625 226.72461 C 341.68675 226.49354 342.79905 226.37695 343.99609 226.37695 C 345.47419 226.37695 346.56236 226.5786 347.25977 226.98047 C 347.95718 227.37229 348.30664 227.99564 348.30664 228.84961 L 348.30664 229.27148 L 345.01172 229.27148 C 341.99308 229.27148 339.77697 229.73391 338.36133 230.6582 C 336.9561 231.5825 336.25195 233.03448 336.25195 235.01367 C 336.25195 236.64123 336.81527 237.96743 337.93945 238.99219 C 339.07405 240.0069 340.54624 240.51367 342.35742 240.51367 C 343.7002 240.51367 344.84052 240.28246 345.77734 239.82031 C 346.71416 239.34812 347.55718 238.59898 348.30664 237.57422 L 348.30664 240.07617 L 353.94336 240.07617 L 353.94336 230.44727 C 353.94336 227.74471 353.24117 225.79516 351.83594 224.59961 C 350.44112 223.39401 348.16568 222.79102 345.01172 222.79102 z M 402.6582 222.79102 C 399.63956 222.79102 397.26502 223.57892 395.53711 225.15625 C 393.81961 226.73358 392.96094 228.89956 392.96094 231.65234 C 392.96094 234.45537 393.83525 236.63613 395.58398 238.19336 C 397.34312 239.74055 399.80633 240.51367 402.9707 240.51367 C 404.29266 240.51367 405.61359 240.38789 406.93555 240.13672 C 408.2575 239.8956 409.58039 239.53302 410.90234 239.05078 L 410.90234 234.89258 C 409.60121 235.57575 408.33048 236.0881 407.0918 236.42969 C 405.86352 236.76123 404.6606 236.92578 403.48438 236.92578 C 402.0271 236.92578 400.89394 236.6095 400.08203 235.97656 C 399.27012 235.34362 398.79547 234.39479 398.66016 233.12891 L 411.72852 233.12891 L 411.72852 231.5918 C 411.72852 228.91938 410.90114 226.78492 409.24609 225.1875 C 407.60145 223.59008 405.40621 222.79102 402.6582 222.79102 z M 402.62695 226.37695 C 403.62623 226.37695 404.43274 226.69323 405.04688 227.32617 C 405.67142 227.94907 405.98242 228.77407 405.98242 229.79883 L 398.72266 229.79883 C 398.8892 228.69369 399.31169 227.85029 399.98828 227.26758 C 400.66487 226.67482 401.54441 226.37695 402.62695 226.37695 z M 308.10156 226.64844 C 309.31943 226.64844 310.25112 227.0813 310.89648 227.94531 C 311.54185 228.79928 311.86328 230.03483 311.86328 231.65234 C 311.86328 233.26986 311.54185 234.51099 310.89648 235.375 C 310.25112 236.22897 309.31943 236.65625 308.10156 236.65625 C 306.86288 236.65625 305.91554 236.22897 305.25977 235.375 C 304.6144 234.51099 304.29102 233.26986 304.29102 231.65234 C 304.29102 230.03483 304.6144 228.79928 305.25977 227.94531 C 305.91554 227.0813 306.86288 226.64844 308.10156 226.64844 z M 286.16406 226.70898 C 287.36111 226.70898 288.27194 227.13069 288.89648 227.97461 C 289.53144 228.81853 289.84961 230.04488 289.84961 231.65234 C 289.84961 233.25981 289.53144 234.48616 288.89648 235.33008 C 288.27194 236.174 287.36111 236.5957 286.16406 236.5957 C 284.96701 236.5957 284.04576 236.174 283.40039 235.33008 C 282.76543 234.47611 282.44727 233.24976 282.44727 231.65234 C 282.44727 230.05492 282.76543 228.83415 283.40039 227.99023 C 284.04576 227.13627 284.96701 226.70898 286.16406 226.70898 z M 379.56445 226.70898 C 380.7615 226.70898 381.67233 227.13069 382.29688 227.97461 C 382.93183 228.81853 383.25 230.04488 383.25 231.65234 C 383.25 233.25981 382.93183 234.48616 382.29688 235.33008 C 381.67233 236.174 380.7615 236.5957 379.56445 236.5957 C 378.37781 236.5957 377.46699 236.174 376.83203 235.33008 C 376.20748 234.48616 375.89648 233.25981 375.89648 231.65234 C 375.89648 230.04488 376.20748 228.81853 376.83203 227.97461 C 377.46699 227.13069 378.37781 226.70898 379.56445 226.70898 z M 345.40234 232.48047 L 348.30664 232.48047 L 348.30664 233.09961 C 348.30664 234.1947 347.94674 235.10839 347.22852 235.8418 C 346.51029 236.56516 345.62554 236.92578 344.57422 236.92578 C 343.73108 236.92578 343.07062 236.73529 342.5918 236.35352 C 342.12339 235.9617 341.88867 235.42536 341.88867 234.74219 C 341.88867 233.99873 342.18076 233.43451 342.76367 233.05273 C 343.35699 232.67096 344.23652 232.48047 345.40234 232.48047 z M 359.75195 234.24414 L 359.75195 240.07617 L 365.37109 240.07617 L 365.37109 234.24414 L 359.75195 234.24414 z "
       id="text3445" />
    <ellipse
       style="color:#000000;clip-rule:nonzero;display:inline;overflow:visible;visibility:visible;opacity:1;isolation:auto;mix-blend-mode:normal;color-interpolation:sRGB;color-interpolation-filters:linearRGB;solid-color:#000000;solid-opacity:1;fill:#999999;fill-opacity:1;fill-rule:nonzero;stroke:none;stroke-width:1.98099995;stroke-linecap:butt;stroke-linejoin:miter;stroke-miterlimit:4;stroke-dasharray:none;stroke-dashoffset:0;stroke-opacity:1;color-rendering:auto;image-rendering:auto;shape-rendering:auto;text-rendering:auto;enable-background:accumulate"
       id="path3426-7-8"
       cx="254.51749"
       cy="340.37579"
       rx="21.844549"
       ry="21.844547"
       transform="matrix(0.98776168,-0.15597074,0.15597074,0.98776168,0,0)"
       inkscape:export-filename="/home/unknwon/AndroidStudioProjects/Vibora-dieApp/app/src/main/res/mipmap-hdpi/ic_launcher.png"
       inkscape:export-xdpi="118.25202"
       inkscape:export-ydpi="118.25202" />
    <ellipse
       style="color:#000000;clip-rule:nonzero;display:inline;overflow:visible;visibility:visible;opacity:1;isolation:auto;mix-blend-mode:normal;color-interpolation:sRGB;color-interpolation-filters:linearRGB;solid-color:#000000;solid-opacity:1;fill:#ffffff;fill-opacity:1;fill-rule:nonzero;stroke:none;stroke-width:1.98099995;stroke-linecap:butt;stroke-linejoin:miter;stroke-miterlimit:4;stroke-dasharray:none;stroke-dashoffset:0;stroke-opacity:1;color-rendering:auto;image-rendering:auto;shape-rendering:auto;text-rendering:auto;enable-background:accumulate"
       id="path3426-3"
       cx="254.89629"
       cy="340.24954"
       rx="18.814091"
       ry="19.192898"
       transform="matrix(0.98776168,-0.15597074,0.15597074,0.98776168,0,0)"
       inkscape:export-filename="/home/unknwon/AndroidStudioProjects/Vibora-dieApp/app/src/main/res/mipmap-hdpi/ic_launcher.png"
       inkscape:export-xdpi="118.25202"
       inkscape:export-ydpi="118.25202" />
    <path
       style="color:#000000;clip-rule:nonzero;display:inline;overflow:visible;visibility:visible;opacity:1;isolation:auto;mix-blend-mode:normal;color-interpolation:sRGB;color-interpolation-filters:linearRGB;solid-color:#000000;solid-opacity:1;fill:#000000;fill-opacity:1;fill-rule:nonzero;stroke:none;stroke-width:1.98099995;stroke-linecap:butt;stroke-linejoin:miter;stroke-miterlimit:4;stroke-dasharray:none;stroke-dashoffset:0;stroke-opacity:1;color-rendering:auto;image-rendering:auto;shape-rendering:auto;text-rendering:auto;enable-background:accumulate"
       d="m 300.88319,273.34654 c -4.33611,0.69177 -8.40087,2.54612 -11.74934,5.35908 l 9.25871,19.66572 3.43361,-25.12625 c -0.31495,0.0277 -0.62933,0.0615 -0.94298,0.10142 z m 7.56378,0.0158 -5.32715,30.6533 -7.73425,1.22126 -10.90822,-21.28373 c -3.18135,4.86475 -4.44624,10.70311 -3.55471,16.40758 1.80034,11.38228 11.96699,21.52065 25.66921,19.73653 -1.04753,-22.31657 11.02185,-20.14355 7.67304,-42.64109 l 3.00749,-0.80905 c -2.68828,-1.66349 -5.68861,-2.7802 -8.82541,-3.2848 z m 11.77603,5.39138 c 1.98157,16.92229 -9.4176,24.87851 -7.74328,40.07117 10.87209,-3.81234 17.47779,-14.71146 15.71465,-25.9285 -0.87393,-5.5025 -3.69787,-10.51304 -7.97137,-14.14267 z"
       id="path3401-4"
       inkscape:connector-curvature="0"
       sodipodi:nodetypes="cccccccccccccccccc"
       inkscape:export-filename="/home/unknwon/AndroidStudioProjects/Vibora-dieApp/app/src/main/res/mipmap-hdpi/ic_launcher.png"
       inkscape:export-xdpi="118.25202"
       inkscape:export-ydpi="118.25202" />
    <ellipse
       style="color:#000000;clip-rule:nonzero;display:inline;overflow:visible;visibility:visible;opacity:1;isolation:auto;mix-blend-mode:normal;color-interpolation:sRGB;color-interpolation-filters:linearRGB;solid-color:#000000;solid-opacity:1;fill:#000000;fill-opacity:1;fill-rule:nonzero;stroke:none;stroke-width:1.98099995;stroke-linecap:butt;stroke-linejoin:miter;stroke-miterlimit:4;stroke-dasharray:none;stroke-dashoffset:0;stroke-opacity:1;color-rendering:auto;image-rendering:auto;shape-rendering:auto;text-rendering:auto;enable-background:accumulate"
       id="path3407-0-0"
       cx="273.1181"
       cy="321.28918"
       rx="5.9346461"
       ry="5.5558386"
       transform="matrix(0.98776168,-0.15597074,0.15597074,0.98776168,0,0)"
       inkscape:export-filename="/home/unknwon/AndroidStudioProjects/Vibora-dieApp/app/src/main/res/mipmap-hdpi/ic_launcher.png"
       inkscape:export-xdpi="118.25202"
       inkscape:export-ydpi="118.25202" />
    <ellipse
       style="color:#000000;clip-rule:nonzero;display:inline;overflow:visible;visibility:visible;opacity:1;isolation:auto;mix-blend-mode:normal;color-interpolation:sRGB;color-interpolation-filters:linearRGB;solid-color:#000000;solid-opacity:1;fill:#ffffff;fill-opacity:1;fill-rule:nonzero;stroke:none;stroke-width:1.98099995;stroke-linecap:butt;stroke-linejoin:miter;stroke-miterlimit:4;stroke-dasharray:none;stroke-dashoffset:0;stroke-opacity:1;color-rendering:auto;image-rendering:auto;shape-rendering:auto;text-rendering:auto;enable-background:accumulate"
       id="path3407-6"
       cx="273.05872"
       cy="321.26859"
       rx="4.1668792"
       ry="4.0406098"
       transform="matrix(0.98776168,-0.15597074,0.15597074,0.98776168,0,0)"
       inkscape:export-filename="/home/unknwon/AndroidStudioProjects/Vibora-dieApp/app/src/main/res/mipmap-hdpi/ic_launcher.png"
       inkscape:export-xdpi="118.25202"
       inkscape:export-ydpi="118.25202" />
  </g>
</svg>
